<?xml version='1.0' encoding='UTF-8'?>
<svg x="0px" y="0px" viewBox="0 0 32 32" version="1.1" xmlns="http://www.w3.org/2000/svg" xmlns:xlink="http://www.w3.org/1999/xlink" enable-background="new 0 0 32 32" xml:space="preserve" id="Layer_1">
  <g id="Address_1_">
    <g opacity="0.75" class="st1">
      <path d="M26,12H16v-2h10V12z M26,14H16v2h10V14z M26,18H16v2h10V18z" fill="#727272" opacity="0.75" class="Black" />
    </g>
    <path d="M29,4H1C0.4,4,0,4.5,0,5v20c0,0.5,0.4,1,1,1h28c0.6,0,1-0.5,1-1V5C30,4.5,29.6,4,29,4z M28,24H2V6h26V24z" fill="#727272" class="Black" />
    <path d="M9,8c1.7,0,3,1.3,3,3s-1.3,3-3,3s-3-1.3-3-3S7.3,8,9,8z M12.2,14.8c-0.9,0.7-2,1.2-3.2,1.2s-2.3-0.5-3.2-1.2   C4,16.5,4,22,4,22h10C14,22,14,16.5,12.2,14.8z" fill="#1177D7" class="Blue" />
  </g>
</svg>