<?xml version='1.0' encoding='UTF-8'?>
<svg x="0px" y="0px" viewBox="0 0 32 32" version="1.1" xmlns="http://www.w3.org/2000/svg" xmlns:xlink="http://www.w3.org/1999/xlink" enable-background="new 0 0 32 32" xml:space="preserve" id="Layer_1">
  <g id="Resume">
    <path d="M25,2H5C4.5,2,4,2.5,4,3v26c0,0.5,0.5,1,1,1h20c0.5,0,1-0.5,1-1V3C26,2.5,25.5,2,25,2z M24,28H6V4h18V28z" fill="#727272" class="Black" />
    <g opacity="0.75" class="st1">
      <path d="M22,22H8v-2h14V22z M22,24H8v2h14V24z" fill="#727272" opacity="0.75" class="Black" />
    </g>
    <path d="M15,6c1.7,0,3,1.3,3,3s-1.3,3-3,3s-3-1.3-3-3S13.3,6,15,6z M18.2,12.8c-0.9,0.7-2,1.2-3.2,1.2   s-2.3-0.5-3.2-1.2C10,14.5,10,18,10,18h10C20,18,20,14.5,18.2,12.8z" fill="#1177D7" class="Blue" />
  </g>
</svg>