<?xml version='1.0' encoding='UTF-8'?>
<svg x="0px" y="0px" viewBox="0 0 32 32" version="1.1" xmlns="http://www.w3.org/2000/svg" xmlns:xlink="http://www.w3.org/1999/xlink" enable-background="new 0 0 32 32" xml:space="preserve" id="Ungroup">
  <g opacity="0.5" class="st0">
    <path d="M16,0h16v6H16V0z M16,14h16V8H16V14z M16,22h16v-6H16V22z M16,30h16v-6H16V30z" fill="#727272" opacity="0.5" class="Black" />
  </g>
  <path d="M14,0v2H8v4H6V0H14z M8,24H6v6h8v-2H8V24z" fill="#727272" class="Black" />
  <path d="M13,8H1C0.4,8,0,8.4,0,9v12c0,0.6,0.4,1,1,1h12c0.6,0,1-0.4,1-1V9C14,8.4,13.6,8,13,8z M11.2,17.8l-1.4,1.4  L7,16.4l-2.8,2.8l-1.4-1.4L5.6,15l-2.8-2.8l1.4-1.4L7,13.6l2.8-2.8l1.4,1.4L8.4,15L11.2,17.8z" fill="#D11C1C" class="Red" />
</svg>